<svg xmlns="http://www.w3.org/2000/svg" version="1.1" xmlns:xlink="http://www.w3.org/1999/xlink" width="805" height="242" viewBox="0 0 805 242"><svg xml:space="preserve" width="805" height="242" data-version="2" data-id="lg_7B5pLhsz4LI8zJoPaC" viewBox="0 0 808 242" x="0" y="0"><rect width="100%" height="100%" fill="transparent"></rect><path fill="#ffbd59" d="M351.24 83.1q-1.41-9.09-6.72-13.31-5.32-4.23-14.4-4.23-12.16 0-18.24 8.19-6.08 8.2-6.08 24.84 0 16.76 6.08 24.96 6.08 8.19 18.24 8.19 9.08 0 14.46-4.23 5.38-4.22 6.78-13.18h15.88q-1.54 14.85-11.33 22.85-9.79 8-25.79 8-18.95 0-29.64-11.97-10.68-11.97-10.68-34.62 0-22.66 10.68-34.56 10.69-11.91 29.64-11.91 9.85 0 17.85 3.59 8 3.58 13.06 10.49 5.05 6.91 6.08 16.9Z"></path><rect width="77.44" height="93.06" x="-38.72" y="-46.53" fill="none" rx="0" ry="0" transform="translate(329.02 99.15)"></rect><path fill="#ffbd59" d="M395.14 77.98v65.92h-15.49V77.98Zm-16-25.99h16.38v16.26h-16.38Z"></path><rect width="16.38" height="91.91" x="-8.19" y="-45.95" fill="none" rx="0" ry="0" transform="translate(387.83 98.44)"></rect><path fill="#ffbd59" d="M426.76 143.9h-15.49V77.98h15.49l-.13 8.32q2.94-4.74 7.17-7.17 4.22-2.43 10.75-2.43 11.01 0 17.66 6.08 6.66 6.08 6.66 20.41v40.71h-15.49v-40.58q0-7.68-3.14-10.94-3.13-3.27-9.28-3.27-4.6 0-7.8 1.67-3.2 1.66-4.8 5.18-1.6 3.52-1.6 9.15Z"></path><rect width="57.6" height="67.2" x="-28.8" y="-33.6" fill="none" rx="0" ry="0" transform="translate(440.57 110.8)"></rect><path fill="#ffbd59" d="M489.48 104.99H528q-.25-7.68-4.09-11.97-3.84-4.29-11.14-4.29-8.7 0-12.67 5.25-3.97 5.25-3.97 17.02 0 11.78 3.91 16.96 3.9 5.19 13.63 5.19 6.78 0 9.6-1.92 2.81-1.92 3.58-5.64h16q-.89 5.76-4.35 10.18-3.46 4.42-9.6 6.91-6.14 2.5-15.23 2.5-16.13 0-24.51-8.83-8.39-8.84-8.39-25.22 0-16.64 8.39-25.54 8.38-8.89 23.61-8.89 9.35 0 16.19 3.84 6.85 3.84 10.69 11.45 3.84 7.62 3.84 19.01v4.74h-54.14Z"></path><rect width="62.72" height="68.48" x="-31.36" y="-34.24" fill="none" rx="0" ry="0" transform="translate(512.63 111.44)"></rect><path fill="#ffbd59" d="M172.46 67.402H63.38c-15.236 0-27.706 12.467-27.706 27.706v76.219c0 15.24 12.467 27.706 27.707 27.706h109.082c15.236 0 27.706-12.467 27.706-27.706V95.108c-.003-15.236-12.47-27.706-27.71-27.706M73.342 81.809C62.72 87.502 55.051 95.837 50.25 102.297c-1.82 2.45-5.701.738-5.104-2.252 3.658-18.274 16.621-22.884 26.636-23.593 3.058-.218 4.263 3.91 1.561 5.357m137.189-42.275h-40.309a60.57 60.57 0 0 0-19.873-10.315l15.207-15.204a6.782 6.782 0 1 0-9.591-9.591L134.82 25.567a6.821 6.821 0 0 0-.89 1.1c-.368-.006-.733-.018-1.1-.018s-.733.01-1.097.015a6.821 6.821 0 0 0-.891-1.1L109.699 4.421a6.782 6.782 0 1 0-9.591 9.59l15.207 15.205a60.54 60.54 0 0 0-19.873 10.315H55.13c-26.016 0-47.3 21.285-47.3 47.3v92.767c0 26.016 21.284 47.3 47.3 47.3h.626v4.693a8 8 0 0 0 7.977 7.977h4.855a8 8 0 0 0 7.977-7.977v-4.693h112.531v2.717a8 8 0 0 0 7.977 7.977h4.855a8 8 0 0 0 7.977-7.977v-2.717h.626c26.016 0 47.3-21.284 47.3-47.3V86.83c0-26.013-21.284-47.297-47.3-47.297M60.135 209.089c-18.739 0-34.067-15.33-34.067-34.066V92.08c0-18.739 15.33-34.067 34.067-34.067h115.571c18.738 0 34.07 15.331 34.07 34.067v82.943c0 18.738-15.332 34.066-34.07 34.066zm172.722-45.733a7.533 7.533 0 1 1 0-15.067 7.533 7.533 0 0 1 0 15.067m0-22.603a7.533 7.533 0 1 1 0-15.066 7.533 7.533 0 0 1 0 15.066m0-22.605a7.533 7.533 0 1 1 0-15.066 7.533 7.533 0 0 1 0 15.066"></path><rect width="168.02" height="133.61" x="-84.01" y="-66.8" fill="#fff" rx="30" ry="30" transform="translate(117.67 133.37)"></rect><path fill="#fff" d="M611.27 83.1q-1.41-9.09-6.72-13.31-5.32-4.23-14.4-4.23-12.16 0-18.24 8.19-6.08 8.2-6.08 24.84 0 16.76 6.08 24.96 6.08 8.19 18.24 8.19 9.08 0 14.46-4.23 5.38-4.22 6.78-13.18h15.88q-1.54 14.85-11.33 22.85-9.79 8-25.79 8-18.95 0-29.64-11.97-10.68-11.97-10.68-34.62 0-22.66 10.68-34.56 10.69-11.91 29.64-11.91 9.85 0 17.85 3.59 8 3.58 13.06 10.49 5.05 6.91 6.08 16.9Z"></path><rect width="77.44" height="93.06" x="-38.72" y="-46.53" fill="none" rx="0" ry="0" transform="translate(589.05 99.15)"></rect><path fill="#fff" d="M657.22 143.9h-15.49V51.99h15.49l-.13 34.31q2.94-4.74 7.1-7.17 4.16-2.43 10.82-2.43 11.14 0 17.73 6.08t6.59 20.29v40.83h-15.49v-40.83q0-7.43-3.13-10.69-3.14-3.27-9.28-3.27-4.61 0-7.81 1.67-3.2 1.66-4.8 5.12-1.6 3.45-1.6 8.96Z"></path><rect width="57.6" height="91.91" x="-28.8" y="-45.95" fill="none" rx="0" ry="0" transform="translate(671.03 98.44)"></rect><path fill="#fff" d="M732.1 77.98v65.92h-15.49V77.98Zm-16-25.99h16.38v16.26H716.1Z"></path><rect width="16.38" height="91.91" x="-8.19" y="-45.95" fill="none" rx="0" ry="0" transform="translate(724.79 98.44)"></rect><path fill="#fff" d="M765.38 143.9h-15.49V51.99h15.49Z"></path><rect width="15.49" height="91.91" x="-7.75" y="-45.95" fill="none" rx="0" ry="0" transform="translate(758.13 98.44)"></rect><path fill="#fff" d="M799.17 143.9h-15.49V51.99h15.49Z"></path><rect width="15.49" height="91.91" x="-7.75" y="-45.95" fill="none" rx="0" ry="0" transform="translate(791.92 98.44)"></rect><path fill="#a7a8ac" d="M326.3 213.78q-3.11 0-5.62-1.24-2.51-1.24-3.99-3.03l1.28-5.37q1.09 2.18 3.27 3.93 2.18 1.75 5.21 1.75 2.76 0 4.57-1.75 1.81-1.75 1.81-4.32 0-1.87-.89-3.07-.9-1.21-2.03-1.91-1.12-.7-1.79-1.01l-4.27-2.18q-1.01-.54-2.51-1.51-1.5-.97-2.63-2.69-1.12-1.71-1.12-4.43 0-2.64 1.22-4.7 1.23-2.07 3.42-3.23 2.2-1.17 5.04-1.17 2.8 0 4.94.99 2.14.99 3.34 2.04l-1.28 5.37q-.97-1.63-2.88-3.07-1.9-1.44-4.32-1.44-2.33 0-3.73 1.38t-1.4 3.4q0 1.56.72 2.57.72 1.01 1.63 1.59.92.59 1.5.9l4.36 2.18q.77.39 1.96 1.09 1.19.7 2.35 1.84 1.17 1.15 1.95 2.8.78 1.66.78 3.99 0 2.99-1.42 5.33-1.42 2.33-3.87 3.65-2.45 1.32-5.6 1.32"></path><rect width="20.5" height="35.93" x="-10.25" y="-17.96" fill="none" rx="0" ry="0" transform="translate(327.44 196.31)"></rect><path fill="#a7a8ac" d="M343.25 213.32v-23.34h4.2v23.34Zm2.1-27.54q-1.16 0-1.98-.81-.82-.82-.82-1.99 0-1.2.82-2t1.98-.8q1.21 0 2 .8.8.8.8 2 0 1.17-.8 1.99-.79.81-2 .81"></path><rect width="5.6" height="33.14" x="-2.8" y="-16.57" fill="none" rx="0" ry="0" transform="translate(345.85 197.25)"></rect><path fill="#a7a8ac" d="M366.59 213.32v-23.34h3.88v3.35q1.29-1.91 3.25-2.86 1.97-.95 4.14-.95 2.38 0 4.36 1.11 1.98 1.1 3.19 3.09 1.36-2.1 3.52-3.15 2.16-1.05 4.57-1.05 2.64 0 4.84 1.24 2.2 1.25 3.5 3.48 1.3 2.24 1.3 5.27v13.81h-4.2v-13.3q0-3.19-1.81-4.84-1.81-1.66-4.18-1.66-1.48 0-2.86.66-1.38.67-2.25 2.07-.88 1.4-.88 3.65v13.42h-4.2v-13.3q0-2.22-.87-3.66-.88-1.44-2.26-2.16-1.38-.72-2.86-.72-1.43 0-2.82.67-1.38.66-2.27 2.06-.89 1.4-.89 3.69v13.42Z"></path><rect width="36.55" height="23.8" x="-18.27" y="-11.9" fill="none" rx="0" ry="0" transform="translate(385.37 201.92)"></rect><path fill="#a7a8ac" d="M421.26 213.78q-3.65 0-6.55-1.63t-4.55-4.45q-1.65-2.82-1.65-6.28 0-3.31 1.59-6.01 1.6-2.7 4.3-4.3 2.7-1.59 5.97-1.59 3.23 0 5.91 1.53 2.68 1.54 4.28 4.15 1.59 2.6 1.59 5.91v1.71h-15.24q-1.01 0-2.06-.08t-2.06-.23q.42 3.11 2.81 5.21 2.4 2.1 5.7 2.1 2.22 0 4.12-1.01 1.91-1.01 3.08-2.69l1.16 4.79q-1.67 1.36-3.83 2.12-2.16.75-4.57.75m-8.59-14.11q2.1-.35 4.24-.35h7.74q.85 0 1.69.06.83.05 1.69.13-.54-2.72-2.72-4.49t-4.94-1.77q-2.84 0-4.98 1.89-2.14 1.88-2.72 4.53m.31-13.19 7.35-8.51 7.35 8.51h-4.43q-.82-.81-1.48-1.69-.66-.87-1.52-2.08-.85 1.21-1.51 2.08-.67.88-1.48 1.69Z"></path><rect width="23.64" height="35.81" x="-11.82" y="-17.91" fill="none" rx="0" ry="0" transform="translate(420.83 196.38)"></rect><path fill="#a7a8ac" d="m464.62 213.32-10.53-12.84 8.67-10.5h4.86l-8.52 10.19 10.85 13.15Zm-15.2 0v-37.34h4.2v37.34Z"></path><rect width="20.53" height="37.34" x="-10.27" y="-18.67" fill="none" rx="0" ry="0" transform="translate(460.19 195.15)"></rect><path fill="#a7a8ac" d="M473.92 213.32v-37.34h4.2v17.31q1.32-1.83 3.27-2.8 1.94-.97 4.16-.97 2.49 0 4.6 1.22 2.12 1.23 3.45 3.54 1.32 2.32 1.32 5.62v13.42h-4.2v-12.84q0-2.76-1.65-4.88-1.66-2.12-4.65-2.12-2.45 0-4.38 1.77-1.92 1.77-1.92 5.12v12.95Z"></path><rect width="21" height="37.34" x="-10.5" y="-18.67" fill="none" rx="0" ry="0" transform="translate(484.92 195.15)"></rect><path fill="#a7a8ac" d="M512.57 213.78q-3.38 0-6.18-1.63t-4.45-4.39q-1.65-2.76-1.65-6.11 0-3.38 1.65-6.12 1.65-2.75 4.45-4.38 2.8-1.63 6.18-1.63 3.43 0 6.21 1.63t4.43 4.38q1.65 2.74 1.65 6.12 0 3.35-1.65 6.11-1.65 2.76-4.43 4.39t-6.21 1.63m0-3.96q2.26 0 4.09-1.11t2.91-2.96q1.09-1.84 1.09-4.1 0-2.25-1.09-4.1-1.08-1.85-2.91-2.96-1.83-1.11-4.09-1.11-2.25 0-4.08 1.11t-2.92 2.96q-1.08 1.85-1.08 4.1 0 2.26 1.08 4.1 1.09 1.85 2.92 2.96 1.83 1.11 4.08 1.11m-7.35-23.34 7.35-8.51 7.35 8.51h-4.43q-.82-.81-1.48-1.69-.66-.87-1.51-2.08-.86 1.21-1.52 2.08-.66.88-1.48 1.69Z"></path><rect width="24.57" height="35.81" x="-12.29" y="-17.91" fill="none" rx="0" ry="0" transform="translate(513.08 196.38)"></rect><path fill="#a7a8ac" d="M530.7 213.32v-23.34h3.89v3.78q1.28-2.06 3.32-3.15 2.04-1.09 4.41-1.09 2.49 0 4.61 1.22 2.12 1.23 3.44 3.54 1.33 2.32 1.33 5.62v13.42h-4.2v-12.84q0-2.76-1.66-4.88-1.65-2.12-4.64-2.12-2.45 0-4.38 1.77-1.92 1.77-1.92 5.12v12.95Z"></path><rect width="21" height="23.8" x="-10.5" y="-11.9" fill="none" rx="0" ry="0" transform="translate(541.7 201.92)"></rect><path fill="#a7a8ac" d="M568.15 225.45q-2.69 0-4.88-.78-2.2-.77-3.91-2.14l1.16-4.74q1.17 1.67 3.12 2.72 1.94 1.05 4.47 1.05 3.93 0 6.36-2.37t2.43-6.11v-2.83q-1.56 1.55-3.68 2.47-2.12.91-4.53.91-3.19 0-5.83-1.61-2.65-1.62-4.22-4.34-1.58-2.72-1.58-6.03 0-3.3 1.58-6.03 1.57-2.72 4.22-4.33 2.64-1.62 5.83-1.62 2.41 0 4.53.9 2.12.89 3.68 2.49v-3.08h3.89v23.34q0 3.81-1.77 6.53t-4.65 4.16q-2.88 1.44-6.22 1.44m1.09-15.63q2.21 0 4.02-1.11 1.81-1.11 2.88-2.96 1.07-1.84 1.07-4.1 0-2.25-1.07-4.1-1.07-1.85-2.88-2.96-1.81-1.11-4.02-1.11-2.22 0-4.03 1.11t-2.88 2.96q-1.07 1.85-1.07 4.1 0 2.26 1.07 4.1 1.07 1.85 2.88 2.96 1.81 1.11 4.03 1.11"></path><rect width="23.73" height="35.78" x="-11.87" y="-17.89" fill="none" rx="0" ry="0" transform="translate(569.42 208.06)"></rect><path fill="#a7a8ac" d="M599.92 213.32v-37.34h4.2v37.34Z"></path><rect width="4.2" height="37.34" x="-2.1" y="-18.67" fill="none" rx="0" ry="0" transform="translate(602.52 195.15)"></rect><path fill="#a7a8ac" d="M622.24 213.78q-3.38 0-6.18-1.63t-4.46-4.39q-1.65-2.76-1.65-6.11 0-3.38 1.65-6.12 1.66-2.75 4.46-4.38t6.18-1.63q3.42 0 6.2 1.63 2.78 1.63 4.44 4.38 1.65 2.74 1.65 6.12 0 3.35-1.65 6.11-1.66 2.76-4.44 4.39-2.78 1.63-6.2 1.63m0-3.96q2.26 0 4.08-1.11 1.83-1.11 2.92-2.96 1.09-1.84 1.09-4.1 0-2.25-1.09-4.1-1.09-1.85-2.92-2.96-1.82-1.11-4.08-1.11-2.25 0-4.08 1.11t-2.92 2.96q-1.09 1.85-1.09 4.1 0 2.26 1.09 4.1 1.09 1.85 2.92 2.96 1.83 1.11 4.08 1.11m-7.35-23.34 7.35-8.51 7.35 8.51h-4.43q-.82-.81-1.48-1.69-.66-.87-1.52-2.08-.85 1.21-1.51 2.08-.66.88-1.48 1.69Zm12.48-5.01 2.96-5.84h4.36l-4.05 5.84Z"></path><rect width="24.74" height="38.15" x="-12.37" y="-19.07" fill="none" rx="0" ry="0" transform="translate(622.82 195.2)"></rect><path fill="#a7a8ac" d="M640.36 213.32v-23.34h4.2v23.34Zm2.1-27.54q-1.16 0-1.98-.81-.82-.82-.82-1.99 0-1.2.82-2t1.98-.8q1.21 0 2.01.8.79.8.79 2 0 1.17-.79 1.99-.8.81-2.01.81"></path><rect width="5.6" height="33.14" x="-2.8" y="-16.57" fill="none" rx="0" ry="0" transform="translate(642.96 197.25)"></rect><path fill="#a7a8ac" d="M666.42 213.32v-19.84h-5.29v-3.5h5.41v-7.77h3.96v7.77h5.8v3.5h-5.68v19.84Z"></path><rect width="15.17" height="31.11" x="-7.58" y="-15.55" fill="none" rx="0" ry="0" transform="translate(669.22 198.26)"></rect><path fill="#a7a8ac" d="M681.2 213.32v-37.34h4.2v17.31q1.32-1.83 3.26-2.8 1.95-.97 4.16-.97 2.49 0 4.61 1.22 2.12 1.23 3.44 3.54 1.33 2.32 1.33 5.62v13.42H698v-12.84q0-2.76-1.66-4.88-1.65-2.12-4.64-2.12-2.45 0-4.38 1.77-1.92 1.77-1.92 5.12v12.95Z"></path><rect width="21" height="37.34" x="-10.5" y="-18.67" fill="none" rx="0" ry="0" transform="translate(692.2 195.15)"></rect><path fill="#a7a8ac" d="M719.85 213.78q-3.38 0-6.18-1.63t-4.45-4.39q-1.66-2.76-1.66-6.11 0-3.38 1.66-6.12 1.65-2.75 4.45-4.38 2.8-1.63 6.18-1.63 3.42 0 6.2 1.63 2.79 1.63 4.44 4.38 1.65 2.74 1.65 6.12 0 3.35-1.65 6.11-1.65 2.76-4.44 4.39-2.78 1.63-6.2 1.63m0-3.96q2.26 0 4.09-1.11 1.82-1.11 2.91-2.96 1.09-1.84 1.09-4.1 0-2.25-1.09-4.1-1.09-1.85-2.91-2.96-1.83-1.11-4.09-1.11-2.25 0-4.08 1.11t-2.92 2.96q-1.09 1.85-1.09 4.1 0 2.26 1.09 4.1 1.09 1.85 2.92 2.96 1.83 1.11 4.08 1.11"></path><rect width="24.58" height="24.26" x="-12.29" y="-12.13" fill="none" rx="0" ry="0" transform="translate(720.35 202.15)"></rect><path fill="#a7a8ac" d="M747.97 213.63q-3.19 0-5.83-1.61-2.65-1.62-4.22-4.34-1.58-2.72-1.58-6.03 0-3.3 1.58-6.03 1.57-2.72 4.22-4.33 2.64-1.62 5.83-1.62 2.41 0 4.53.9 2.12.89 3.67 2.49v-3.08h3.89v23.34h-3.89v-3.07q-1.55 1.55-3.67 2.47-2.12.91-4.53.91m.54-3.81q2.22 0 4.03-1.11t2.88-2.96q1.07-1.84 1.07-4.1 0-2.25-1.07-4.1-1.07-1.85-2.88-2.96-1.81-1.11-4.03-1.11-2.21 0-4.02 1.11-1.81 1.11-2.88 2.96-1.07 1.85-1.07 4.1 0 2.26 1.07 4.1 1.07 1.85 2.88 2.96 1.81 1.11 4.02 1.11m-1.63-23.34 3.5-7h4.9l-4.86 7Z"></path><rect width="23.72" height="34.15" x="-11.86" y="-17.07" fill="none" rx="0" ry="0" transform="translate(748.7 197.06)"></rect><path fill="#a7a8ac" d="M770.25 213.32v-19.84h-5.29v-3.5h5.41v-7.77h3.97v7.77h5.79v3.5h-5.68v19.84Z"></path><rect width="15.17" height="31.11" x="-7.58" y="-15.55" fill="none" rx="0" ry="0" transform="translate(773.04 198.26)"></rect></svg></svg>